<svg xmlns="http://www.w3.org/2000/svg" xmlns:xlink="http://www.w3.org/1999/xlink" version="1.1" width="1000" height="1000" viewBox="0 0 1000 1000" xml:space="preserve">
<desc>Created with Fabric.js 3.5.0</desc>
<defs>
</defs>
<rect x="0" y="0" width="100%" height="100%" fill="#333333"/>
<g transform="matrix(37.8788 0 0 37.8788 500.0001 500.0001)" id="512836">
<g style="" vector-effect="non-scaling-stroke">
		<g transform="matrix(1 0 0 1 -2.9971 2.9972)">
<path style="stroke: rgb(0,0,0); stroke-width: 2; stroke-dasharray: none; stroke-linecap: round; stroke-dashoffset: 0; stroke-linejoin: round; stroke-miterlimit: 4; is-custom-font: none; font-file-url: none; fill: none; fill-rule: nonzero; opacity: 1;" transform=" translate(-9.0028, -14.9972)" d="m 15 12 l -8.373 8.373 a 1 1 0 1 1 -3 -3 L 12 9" stroke-linecap="round"/>
</g>
		<g transform="matrix(1 0 0 1 8 1)">
<path style="stroke: rgb(0,0,0); stroke-width: 2; stroke-dasharray: none; stroke-linecap: round; stroke-dashoffset: 0; stroke-linejoin: round; stroke-miterlimit: 4; is-custom-font: none; font-file-url: none; fill: none; fill-rule: nonzero; opacity: 1;" transform=" translate(-20, -13)" d="m 18 15 l 4 -4" stroke-linecap="round"/>
</g>
		<g transform="matrix(1 0 0 1 3.25 -3.27)">
<path style="stroke: rgb(0,0,0); stroke-width: 2; stroke-dasharray: none; stroke-linecap: round; stroke-dashoffset: 0; stroke-linejoin: round; stroke-miterlimit: 4; is-custom-font: none; font-file-url: none; fill: none; fill-rule: nonzero; opacity: 1;" transform=" translate(-15.25, -8.73)" d="m 21.5 11.5 l -1.914 -1.914 A 2 2 0 0 1 19 8.172 V 7 l -2.26 -2.26 a 6 6 0 0 0 -4.202 -1.756 L 9 2.96 l 0.92 0.82 A 6.18 6.18 0 0 1 12 8.4 V 10 l 2 2 h 1.172 a 2 2 0 0 1 1.414 0.586 L 18.5 14.5" stroke-linecap="round"/>
</g>
</g>
</g>
</svg>