<svg xmlns="http://www.w3.org/2000/svg" xmlns:xlink="http://www.w3.org/1999/xlink" version="1.1" width="1000" height="1000" viewBox="0 0 1000 1000" xml:space="preserve">
<desc>Created with Fabric.js 3.5.0</desc>
<defs>
</defs>
<rect x="0" y="0" width="100%" height="100%" fill="#333333"/>
<g transform="matrix(37.8788 0 0 37.8788 500.0001 500.0001)" id="512836">
<g style="" vector-effect="non-scaling-stroke">
		<g transform="matrix(1 0 0 1 -2.9971 2.9972)">
<path style="stroke: rgb(0,0,0); stroke-width: 2; stroke-dasharray: none; stroke-linecap: round; stroke-dashoffset: 0; stroke-linejoin: round; stroke-miterlimit: 4; is-custom-font: none; font-file-url: none; fill: none; fill-rule: nonzero; opacity: 1;" transform=" translate(-9.0028, -14.9972)" d="m 15 12 l -8.373 8.373 a 1 1 0 1 1 -3 -3 L 12 9" stroke-linecap="round"/>
</g>
		<g transform="matrix(1 0 0 1 8 1)">
<path style="stroke: rgb(0,0,0); stroke-width: 2; stroke-dasharray: none; stroke-linecap: round; stroke-dashoffset: 0; stroke-linejoin: round; stroke-miterlimit: 4; is-custom-font: none; font-file-url: none; fill: none; fill-rule: nonzero; opacity: 1;" transform=" translate(-20, -13)" d="m 18 15 l 4 -4" stroke-linecap="round"/>
</g>
		<g transform="matrix(1 0 0 1 3.25 -3.27)">
<path style="stroke: rgb(0,0,0); stroke-width: 2; stroke-dasharray: none; stroke-linecap: round; stroke-dashoffset: 0; stroke-linejoin: round; stroke-miterlimit: 4; is-custom-font: none; font-file-url: none; fill: none; fill-rule: nonzero; opacity: 1;" transform=" translate(-15.25, -8.73)" d="m 21.5 11.5 l -1.914 -1.914 A 2 2 0 0 1 19 8.172 V 7 l -2.26 -2.26 a 6 6 0 0 0 -4.202 -1.756 L 9 2.96 l 0.92 0.82 A 6.18 6.18 0 0 1 12 8.4 V 10 l 2 2 h 1.172 a 2 2 0 0 1 1.414 0.586 L 18.5 14.5" stroke-linecap="round"/>
</g>
</g>
</g>
<g transform="matrix(1.9302 0 0 1.9302 824.8484 811.1872)" id="42797">
<g style="" vector-effect="non-scaling-stroke">
		<g transform="matrix(1 0 0 1 0 0)" id="Layer_1">
<circle style="stroke: none; stroke-width: 1; stroke-dasharray: none; stroke-linecap: butt; stroke-dashoffset: 0; stroke-linejoin: miter; stroke-miterlimit: 4; is-custom-font: none; font-file-url: none; fill: rgb(255,191,11); fill-rule: nonzero; opacity: 1;" cx="0" cy="0" r="32"/>
</g>
		<g transform="matrix(1 0 0 1 12.5 -10.5)" id="Layer_1">
<circle style="stroke: none; stroke-width: 1; stroke-dasharray: none; stroke-linecap: butt; stroke-dashoffset: 0; stroke-linejoin: miter; stroke-miterlimit: 4; is-custom-font: none; font-file-url: none; fill: rgb(255,255,255); fill-rule: nonzero; opacity: 1;" cx="0" cy="0" r="7.5"/>
</g>
		<g transform="matrix(1 0 0 1 0 10)" id="Layer_1">
<path style="stroke: none; stroke-width: 1; stroke-dasharray: none; stroke-linecap: butt; stroke-dashoffset: 0; stroke-linejoin: miter; stroke-miterlimit: 4; is-custom-font: none; font-file-url: none; fill: rgb(26,26,84); fill-rule: nonzero; opacity: 1;" transform=" translate(-32, -42)" d="M 52 32 c 0 11 -9 20 -20 20 s -20 -9 -20 -20 H 52 z" stroke-linecap="round"/>
</g>
		<g transform="matrix(1 0 0 1 0 14.5)" id="Layer_1">
<path style="stroke: none; stroke-width: 1; stroke-dasharray: none; stroke-linecap: butt; stroke-dashoffset: 0; stroke-linejoin: miter; stroke-miterlimit: 4; is-custom-font: none; font-file-url: none; fill: rgb(220,40,99); fill-rule: nonzero; opacity: 1;" transform=" translate(-32, -46.5)" d="M 32 41 c -6 0 -11.3 2 -14.4 5 C 21.3 49.7 26.4 52 32 52 s 10.7 -2.3 14.4 -6.1 C 43.3 42.9 38 41 32 41 z" stroke-linecap="round"/>
</g>
		<g transform="matrix(1 0 0 1 0 2.5)" id="Layer_1">
<path style="stroke: none; stroke-width: 1; stroke-dasharray: none; stroke-linecap: butt; stroke-dashoffset: 0; stroke-linejoin: miter; stroke-miterlimit: 4; is-custom-font: none; font-file-url: none; fill: rgb(255,255,255); fill-rule: nonzero; opacity: 1;" transform=" translate(-32, -34.5)" d="M 42.4 37 H 21.6 c -1 0 -1.8 -0.7 -2 -1.6 L 19 32 h 26 l -0.7 3.4 C 44.1 36.3 43.3 37 42.4 37 z" stroke-linecap="round"/>
</g>
		<g transform="matrix(1 0 0 1 12.5 -10.5)" id="Layer_1">
<circle style="stroke: none; stroke-width: 1; stroke-dasharray: none; stroke-linecap: butt; stroke-dashoffset: 0; stroke-linejoin: miter; stroke-miterlimit: 4; is-custom-font: none; font-file-url: none; fill: rgb(26,26,84); fill-rule: nonzero; opacity: 1;" cx="0" cy="0" r="4.5"/>
</g>
		<g transform="matrix(1 0 0 1 -12.5 -10.5)" id="Layer_1">
<circle style="stroke: none; stroke-width: 1; stroke-dasharray: none; stroke-linecap: butt; stroke-dashoffset: 0; stroke-linejoin: miter; stroke-miterlimit: 4; is-custom-font: none; font-file-url: none; fill: rgb(255,255,255); fill-rule: nonzero; opacity: 1;" cx="0" cy="0" r="7.5"/>
</g>
		<g transform="matrix(1 0 0 1 -12.5 -10.5)" id="Layer_1">
<circle style="stroke: none; stroke-width: 1; stroke-dasharray: none; stroke-linecap: butt; stroke-dashoffset: 0; stroke-linejoin: miter; stroke-miterlimit: 4; is-custom-font: none; font-file-url: none; fill: rgb(26,26,84); fill-rule: nonzero; opacity: 1;" cx="0" cy="0" r="4.5"/>
</g>
		<g transform="matrix(1 0 0 1 12.5 -4)" id="Layer_1">
<ellipse style="stroke: none; stroke-width: 1; stroke-dasharray: none; stroke-linecap: butt; stroke-dashoffset: 0; stroke-linejoin: miter; stroke-miterlimit: 4; is-custom-font: none; font-file-url: none; fill: rgb(255,191,11); fill-rule: nonzero; opacity: 1;" cx="0" cy="0" rx="16.4" ry="4"/>
</g>
		<g transform="matrix(1 0 0 1 -12.5 -4)" id="Layer_1">
<ellipse style="stroke: none; stroke-width: 1; stroke-dasharray: none; stroke-linecap: butt; stroke-dashoffset: 0; stroke-linejoin: miter; stroke-miterlimit: 4; is-custom-font: none; font-file-url: none; fill: rgb(255,191,11); fill-rule: nonzero; opacity: 1;" cx="0" cy="0" rx="16.4" ry="4"/>
</g>
</g>
</g>
<g transform="matrix(3.8106 0 0 3.6091 179.3162 217.8445)" id="233180">
<g style="" vector-effect="non-scaling-stroke">
		<g transform="matrix(1 0 0 1 0 0)" id="Layer_1">
<circle style="stroke: none; stroke-width: 1; stroke-dasharray: none; stroke-linecap: butt; stroke-dashoffset: 0; stroke-linejoin: miter; stroke-miterlimit: 4; is-custom-font: none; font-file-url: none; fill: rgb(255,191,11); fill-rule: nonzero; opacity: 1;" cx="0" cy="0" r="32"/>
</g>
		<g transform="matrix(1 0 0 1 12.5 -10.5)" id="Layer_1">
<circle style="stroke: none; stroke-width: 1; stroke-dasharray: none; stroke-linecap: butt; stroke-dashoffset: 0; stroke-linejoin: miter; stroke-miterlimit: 4; is-custom-font: none; font-file-url: none; fill: rgb(255,255,255); fill-rule: nonzero; opacity: 1;" cx="0" cy="0" r="7.5"/>
</g>
		<g transform="matrix(1 0 0 1 0 10)" id="Layer_1">
<path style="stroke: none; stroke-width: 1; stroke-dasharray: none; stroke-linecap: butt; stroke-dashoffset: 0; stroke-linejoin: miter; stroke-miterlimit: 4; is-custom-font: none; font-file-url: none; fill: rgb(26,26,84); fill-rule: nonzero; opacity: 1;" transform=" translate(-32, -42)" d="M 52 32 c 0 11 -9 20 -20 20 s -20 -9 -20 -20 H 52 z" stroke-linecap="round"/>
</g>
		<g transform="matrix(1 0 0 1 0 14.5)" id="Layer_1">
<path style="stroke: none; stroke-width: 1; stroke-dasharray: none; stroke-linecap: butt; stroke-dashoffset: 0; stroke-linejoin: miter; stroke-miterlimit: 4; is-custom-font: none; font-file-url: none; fill: rgb(220,40,99); fill-rule: nonzero; opacity: 1;" transform=" translate(-32, -46.5)" d="M 32 41 c -6 0 -11.3 2 -14.4 5 C 21.3 49.7 26.4 52 32 52 s 10.7 -2.3 14.4 -6.1 C 43.3 42.9 38 41 32 41 z" stroke-linecap="round"/>
</g>
		<g transform="matrix(1 0 0 1 0 2.5)" id="Layer_1">
<path style="stroke: none; stroke-width: 1; stroke-dasharray: none; stroke-linecap: butt; stroke-dashoffset: 0; stroke-linejoin: miter; stroke-miterlimit: 4; is-custom-font: none; font-file-url: none; fill: rgb(255,255,255); fill-rule: nonzero; opacity: 1;" transform=" translate(-32, -34.5)" d="M 42.4 37 H 21.6 c -1 0 -1.8 -0.7 -2 -1.6 L 19 32 h 26 l -0.7 3.4 C 44.1 36.3 43.3 37 42.4 37 z" stroke-linecap="round"/>
</g>
		<g transform="matrix(1 0 0 1 12.5 -10.5)" id="Layer_1">
<circle style="stroke: none; stroke-width: 1; stroke-dasharray: none; stroke-linecap: butt; stroke-dashoffset: 0; stroke-linejoin: miter; stroke-miterlimit: 4; is-custom-font: none; font-file-url: none; fill: rgb(26,26,84); fill-rule: nonzero; opacity: 1;" cx="0" cy="0" r="4.5"/>
</g>
		<g transform="matrix(1 0 0 1 -12.5 -10.5)" id="Layer_1">
<circle style="stroke: none; stroke-width: 1; stroke-dasharray: none; stroke-linecap: butt; stroke-dashoffset: 0; stroke-linejoin: miter; stroke-miterlimit: 4; is-custom-font: none; font-file-url: none; fill: rgb(255,255,255); fill-rule: nonzero; opacity: 1;" cx="0" cy="0" r="7.5"/>
</g>
		<g transform="matrix(1 0 0 1 -12.5 -10.5)" id="Layer_1">
<circle style="stroke: none; stroke-width: 1; stroke-dasharray: none; stroke-linecap: butt; stroke-dashoffset: 0; stroke-linejoin: miter; stroke-miterlimit: 4; is-custom-font: none; font-file-url: none; fill: rgb(26,26,84); fill-rule: nonzero; opacity: 1;" cx="0" cy="0" r="4.5"/>
</g>
		<g transform="matrix(1 0 0 1 12.5 -4)" id="Layer_1">
<ellipse style="stroke: none; stroke-width: 1; stroke-dasharray: none; stroke-linecap: butt; stroke-dashoffset: 0; stroke-linejoin: miter; stroke-miterlimit: 4; is-custom-font: none; font-file-url: none; fill: rgb(255,191,11); fill-rule: nonzero; opacity: 1;" cx="0" cy="0" rx="16.4" ry="4"/>
</g>
		<g transform="matrix(1 0 0 1 -12.5 -4)" id="Layer_1">
<ellipse style="stroke: none; stroke-width: 1; stroke-dasharray: none; stroke-linecap: butt; stroke-dashoffset: 0; stroke-linejoin: miter; stroke-miterlimit: 4; is-custom-font: none; font-file-url: none; fill: rgb(255,191,11); fill-rule: nonzero; opacity: 1;" cx="0" cy="0" rx="16.4" ry="4"/>
</g>
</g>
</g>
</svg>